<svg width="34" height="34" viewBox="0 0 34 34" fill="none" xmlns="http://www.w3.org/2000/svg">
<mask id="path-1-inside-1_3586_3114" fill="white">
<path d="M0 4C0 1.79086 1.79086 0 4 0H30C32.2091 0 34 1.79086 34 4V30C34 32.2091 32.2091 34 30 34H4C1.79086 34 0 32.2091 0 30V4Z"/>
</mask>
<path d="M4 0V0.8H30V0V-0.8H4V0ZM34 4H33.2V30H34H34.8V4H34ZM30 34V33.2H4V34V34.8H30V34ZM0 30H0.8V4H0H-0.8V30H0ZM4 34V33.2C2.23269 33.2 0.8 31.7673 0.8 30H0H-0.8C-0.8 32.651 1.34903 34.8 4 34.8V34ZM34 30H33.2C33.2 31.7673 31.7673 33.2 30 33.2V34V34.8C32.651 34.8 34.8 32.651 34.8 30H34ZM30 0V0.8C31.7673 0.8 33.2 2.23269 33.2 4H34H34.8C34.8 1.34903 32.651 -0.8 30 -0.8V0ZM4 0V-0.8C1.34903 -0.8 -0.8 1.34903 -0.8 4H0H0.8C0.8 2.23269 2.23269 0.8 4 0.8V0Z" mask="url(#path-1-inside-1_3586_3114)"/>
<path d="M8.75 17H25.25M8.75 11H25.25M8.75 23H25.25" stroke="#6B6B6B" stroke-width="2.5" stroke-linecap="round" stroke-linejoin="round"/>
</svg>
