<svg width="24" height="24" viewBox="0 0 24 24" fill="none" xmlns="http://www.w3.org/2000/svg">
<path d="M7.9125 20.9719V23H1.3125C0.6 23 0 22.45 0 21.7969V15.7469H2.175V20.9719H7.9125Z" fill="#EC2326"/>
<path d="M24 15.7469V21.7969C24 22.45 23.4 23 22.6875 23H16.0875V20.9719H21.825V15.7469H24Z" fill="#EC2326"/>
<path d="M24 2.20312V8.25313H21.825V2.99375H16.0875V1H22.6875C23.4 1 24 1.55 24 2.20312Z" fill="#EC2326"/>
<path d="M7.9125 1V2.99375H2.175V8.25313H0V2.20312C0 1.55 0.6 1 1.3125 1H7.9125Z" fill="#EC2326"/>
<path d="M11.9625 7.1875C15.675 7.325 18.4125 8.8375 20.25 11.7594C20.3625 11.9656 20.3625 12.1031 20.25 12.3094C18.375 15.2312 15.675 16.8469 11.9625 16.8469C8.28752 16.8469 5.58752 15.1969 3.75002 12.3094C3.63752 12.1031 3.63752 11.9656 3.75002 11.7594C5.58752 8.8375 8.32502 7.325 11.9625 7.1875ZM7.87502 9.86875C7.76252 9.83437 7.68752 9.90313 7.65002 9.9375C6.90002 10.4188 6.26252 11.0031 5.73752 11.6906C5.55002 11.9313 5.55002 12.1031 5.73752 12.3438C7.08752 13.9938 8.85003 15.0594 11.1 15.2656C14.1375 15.575 16.575 14.5094 18.375 12.2406C18.4875 12.1375 18.5625 12 18.45 11.8625C17.8875 11.0719 17.175 10.4187 16.35 9.90312C16.3125 9.86875 16.2375 9.83437 16.2 9.86875C16.125 9.90312 16.1625 9.97187 16.1625 10.0406C16.2 10.3156 16.275 10.5906 16.275 10.8313C16.275 12.4125 15.525 13.6156 14.025 14.3719C12.4875 15.0937 10.95 14.9906 9.56252 14.0625C8.17502 13.1344 7.65002 11.8625 7.87502 10.3156C7.87502 10.1781 7.98752 10.0406 7.87502 9.86875ZM10.425 11.9656C11.2875 11.9656 11.925 11.3812 11.9625 10.5906C11.9625 9.8 11.325 9.18125 10.5 9.18125C9.63752 9.18125 8.96252 9.76562 8.92502 10.5562C8.92502 11.3469 9.56252 11.9656 10.425 11.9656Z" fill="#EC2326"/>
</svg>
