<svg width="24" height="25" viewBox="0 0 24 25" fill="none" xmlns="http://www.w3.org/2000/svg">
<path d="M14.4718 15.9934V18.101C14.4726 18.2966 14.4325 18.4903 14.3542 18.6696C14.2758 18.8488 14.1608 19.0097 14.0167 19.142C13.8725 19.2743 13.7023 19.375 13.5169 19.4377C13.3316 19.5003 13.1352 19.5236 12.9403 19.506C10.7786 19.2711 8.70202 18.5324 6.87757 17.3493C5.18016 16.2707 3.74105 14.8316 2.66244 13.1341C1.47517 11.3014 0.7363 9.21477 0.505702 7.04328C0.488146 6.84901 0.511234 6.65322 0.573496 6.46836C0.635757 6.2835 0.735828 6.11363 0.867336 5.96956C0.998845 5.8255 1.15891 5.7104 1.33734 5.63158C1.51577 5.55277 1.70866 5.51197 1.90372 5.51179H4.01128C4.35222 5.50843 4.68275 5.62916 4.94126 5.85148C5.19976 6.07379 5.36861 6.38252 5.41633 6.72012C5.50528 7.39459 5.67025 8.05683 5.90809 8.69421C6.00261 8.94566 6.02307 9.21893 5.96704 9.48165C5.91101 9.74437 5.78084 9.98552 5.59196 10.1765L4.69976 11.0687C5.69983 12.8275 7.15609 14.2838 8.91489 15.2839L9.80709 14.3917C9.9981 14.2028 10.2392 14.0726 10.502 14.0166C10.7647 13.9605 11.038 13.981 11.2894 14.0755C11.9268 14.3134 12.589 14.4783 13.2635 14.5673C13.6048 14.6154 13.9164 14.7873 14.1392 15.0503C14.362 15.3132 14.4804 15.6489 14.4718 15.9934Z" fill="#EC2326"/>
</svg>
