<svg width="20" height="20" viewBox="0 0 20 20" fill="none" xmlns="http://www.w3.org/2000/svg">
<path fill-rule="evenodd" clip-rule="evenodd" d="M8.90584 0.424361C9.20484 0.151375 9.59509 0 10 0C10.4049 0 10.7952 0.151375 11.0942 0.424361L11.0954 0.42545L19.2071 7.79696L19.1909 7.80755H19.2185C19.3788 7.95898 19.5073 8.14096 19.5961 8.34278C19.6851 8.5446 19.7328 8.76217 19.7364 8.98269L19.7365 8.99581V18.3773C19.7365 18.8077 19.5655 19.2204 19.2611 19.5248C18.9568 19.829 18.5441 20 18.1137 20H1.88629C1.45591 20 1.04316 19.829 0.73884 19.5248C0.434517 19.2204 0.26355 18.8077 0.26355 18.3773V8.99581L0.263656 8.98269C0.267224 8.76218 0.314879 8.5446 0.403817 8.34278C0.492753 8.14096 0.621173 7.95898 0.781516 7.80755L0.792941 7.79696L8.90464 0.42545L8.90584 0.424361ZM18.1137 9.00685V18.3773H1.88629V9.00685C1.88658 9.00351 1.88741 9.00024 1.88877 8.99716C1.89007 8.99421 1.89182 8.99149 1.89398 8.98909L9.998 1.62456L10 1.62274L10.002 1.62456L18.106 8.98909C18.1082 8.99149 18.1099 8.99421 18.1112 8.99716C18.1126 9.00024 18.1134 9.00351 18.1137 9.00685Z" fill="#EE1F23"/>
</svg>
