<svg width="41" height="25" viewBox="0 0 41 25" fill="none" xmlns="http://www.w3.org/2000/svg">
<path d="M24.7719 0.00642832H6.62003L0 8.72808C7.90256 5.6433 19.7537 6.9207 19.7537 6.9207C19.7537 6.9207 19.7537 6.9207 18.6867 9.68478C15.1639 9.36679 5.44666 11.5982 5.44666 11.5982C5.44666 11.5982 5.55308 11.9161 5.12739 14.2562C9.29152 12.7668 17.6198 12.5549 17.6198 12.5549L14.5199 18.0884L8.86037 19.7898L13.0245 25L14.9456 22.4479C14.9456 22.4479 18.2556 22.4479 21.3527 22.4479C24.4499 22.4479 41 22.1299 41 10.7502C41 -0.629554 24.7719 0.00642832 24.7719 0.00642832ZM29.0425 17.4497C26.693 17.9824 18.684 17.4497 18.684 17.4497C18.684 17.4497 19.7509 15.2157 20.9271 12.8756C22.9545 12.2369 31.2855 14.0442 31.2855 14.0442C31.2855 14.0442 32.4589 10.4295 32.0332 10.0028C31.6048 9.57606 22.638 9.57607 22.638 9.57607L22.9573 6.81199C33.1002 6.494 37.7991 9.57606 37.7991 12.6608C37.7991 15.7456 31.3919 16.917 29.0425 17.4497Z" fill="#bbbbbb"/>
</svg>
