<svg width="6" height="3" viewBox="0 0 6 3" fill="none" xmlns="http://www.w3.org/2000/svg">
<path d="M6 0.427835C6 0.386598 5.97595 0.340206 5.93988 0.309278L5.63928 0.0515462C5.60321 0.0206185 5.5491 0 5.501 0C5.45291 0 5.3988 0.0206185 5.36273 0.0515462L3 2.07732L0.637275 0.0515462C0.601202 0.0206185 0.547094 0 0.498998 0C0.44489 0 0.396794 0.0206185 0.360721 0.0515462L0.0601202 0.309278C0.0240481 0.340206 0 0.386598 0 0.427835C0 0.469072 0.0240481 0.515464 0.0601202 0.546392L2.86172 2.94845C2.8978 2.97938 2.9519 3 3 3C3.0481 3 3.1022 2.97938 3.13828 2.94845L5.93988 0.546392C5.97595 0.515464 6 0.469072 6 0.427835Z" fill="#323031"/>
</svg>
