<svg width="20" height="20" viewBox="0 0 20 20" fill="none" xmlns="http://www.w3.org/2000/svg">
<path d="M10 20C15.5228 20 20 15.5228 20 10C20 4.47715 15.5228 0 10 0C4.47715 0 0 4.47715 0 10C0 15.5228 4.47715 20 10 20Z" fill="white"/>
<path d="M11.0261 7.27492C10.7888 7.10831 10.5201 6.93597 10.2419 6.76679L10.2419 6.76679C9.16953 6.11466 8.63333 5.78859 8.15242 6.1496C7.6715 6.51061 7.62779 7.26636 7.54038 8.77785C7.51566 9.2053 7.5 9.62434 7.5 10C7.5 10.3757 7.51566 10.7947 7.54038 11.2222C7.62779 12.7336 7.6715 13.4894 8.15241 13.8504C8.63333 14.2114 9.16953 13.8853 10.2419 13.2332C10.5201 13.064 10.7888 12.8917 11.0261 12.7251C11.2966 12.5352 11.5909 12.3073 11.8876 12.0652C12.9625 11.1883 13.5 10.7499 13.5 10C13.5 9.25012 12.9625 8.81168 11.8876 7.9348C11.5909 7.69274 11.2966 7.46483 11.0261 7.27492Z" fill="#191919"/>
</svg>
