<svg width="12" height="12" viewBox="0 0 12 12" fill="none" xmlns="http://www.w3.org/2000/svg">
<path fill-rule="evenodd" clip-rule="evenodd" d="M0.25 1.25C0.25 0.697715 0.697715 0.25 1.25 0.25H10.75C11.3023 0.25 11.75 0.697715 11.75 1.25V10.75C11.75 11.3023 11.3023 11.75 10.75 11.75H1.25C0.697715 11.75 0.25 11.3023 0.25 10.75V1.25ZM6.5 10.75H10.75V9.5H6.5V10.75ZM5.5 10.75H1.25V1.25H5.5V10.75ZM6.5 8.5H10.75V7.5H6.5V8.5ZM6.5 6.5H10.75V5.5H6.5V6.5ZM6.5 4.5H10.75V3.5H6.5V4.5ZM6.5 2.5H10.75V1.25H6.5V2.5Z" fill="black"/>
</svg>
