<?xml version="1.0" encoding="utf-8"?>
<!-- Generator: Adobe Illustrator 16.0.0, SVG Export Plug-In . SVG Version: 6.00 Build 0)  -->
<!DOCTYPE svg PUBLIC "-//W3C//DTD SVG 1.1//EN" "http://www.w3.org/Graphics/SVG/1.1/DTD/svg11.dtd">
<svg version="1.1" id="Layer_1" xmlns="http://www.w3.org/2000/svg" xmlns:xlink="http://www.w3.org/1999/xlink" x="0px" y="0px"
	 width="24px" height="24px" viewBox="0 0 24 24" enable-background="new 0 0 24 24" xml:space="preserve">
<g>
	<path fill-rule="evenodd" clip-rule="evenodd" fill="#424242" d="M14.025,18.699c-4.632,0.022-8.462-3.737-8.506-8.351
		c-0.044-4.689,3.736-8.54,8.405-8.562c4.683-0.022,8.508,3.782,8.507,8.459C22.43,14.874,18.648,18.676,14.025,18.699z
		 M14.009,2.677C9.83,2.663,6.424,6.039,6.41,10.208c-0.014,4.178,3.364,7.586,7.531,7.601c4.174,0.015,7.586-3.369,7.6-7.534
		C21.555,6.095,18.181,2.691,14.009,2.677z"/>
	<path fill-rule="evenodd" clip-rule="evenodd" fill="#424242" d="M4.823,8.152c-1.146,7.576,2.099,12.532,11.122,11.296
		c-2.576,1.813-6.954,1.207-9.591-1.326C3.615,15.489,2.9,11.128,4.823,8.152z"/>
	<path fill-rule="evenodd" clip-rule="evenodd" fill="#424242" d="M14.199,21.202c-2.592,1.84-6.988,1.233-9.624-1.296
		c-2.74-2.63-3.455-6.984-1.565-9.927c-0.305,3.345-0.546,6.597,2.08,9.195C7.695,21.751,10.917,21.521,14.199,21.202z"/>
	<path fill-rule="evenodd" clip-rule="evenodd" fill="#424242" d="M17.084,10.25c-0.006,1.692-1.426,3.106-3.117,3.102
		c-1.693-0.005-3.104-1.424-3.099-3.118c0.004-1.695,1.421-3.104,3.115-3.1C15.676,7.139,17.09,8.559,17.084,10.25z M13.992,8.024
		c-1.191-0.01-2.194,0.952-2.234,2.145c-0.041,1.233,0.964,2.281,2.199,2.292c1.189,0.01,2.195-0.956,2.236-2.146
		C16.234,9.083,15.229,8.035,13.992,8.024z"/>
	<circle fill-rule="evenodd" clip-rule="evenodd" fill="#ED1C24" cx="13.932" cy="10.188" r="0.779"/>
</g>
</svg>
