<svg width="24" height="24" viewBox="0 0 24 24" fill="none" xmlns="http://www.w3.org/2000/svg">
<path d="M6.41903 17.1122C5.9697 17.1122 5.56191 17.0276 5.19567 16.8583C4.82943 16.686 4.53859 16.4382 4.32315 16.1151C4.10772 15.7888 4 15.3949 4 14.9332C4 14.527 4.08002 14.1977 4.24006 13.9453C4.40009 13.6899 4.61399 13.4898 4.88175 13.3452C5.1495 13.2005 5.44496 13.0928 5.76811 13.022C6.09434 12.9482 6.42211 12.8897 6.75142 12.8466C7.18229 12.7912 7.53161 12.7496 7.79936 12.7219C8.07019 12.6912 8.26716 12.6404 8.39027 12.5696C8.51645 12.4988 8.57955 12.3757 8.57955 12.2003V12.1634C8.57955 11.7079 8.4549 11.3539 8.20561 11.1016C7.9594 10.8492 7.58546 10.723 7.08381 10.723C6.56368 10.723 6.15589 10.8369 5.86044 11.0646C5.56499 11.2924 5.35724 11.5355 5.23722 11.794L4.20312 11.4247C4.38778 10.9938 4.634 10.6584 4.94176 10.4183C5.2526 10.1752 5.59115 10.0059 5.95739 9.91051C6.3267 9.81203 6.68987 9.76278 7.04688 9.76278C7.27462 9.76278 7.53622 9.79048 7.83168 9.84588C8.13021 9.8982 8.41797 10.0075 8.69496 10.1736C8.97502 10.3398 9.20739 10.5907 9.39205 10.9261C9.5767 11.2616 9.66903 11.7109 9.66903 12.2741V16.946H8.57955V15.9858H8.52415C8.45028 16.1397 8.32718 16.3043 8.15483 16.4798C7.98248 16.6552 7.7532 16.8045 7.46697 16.9276C7.18075 17.0507 6.83144 17.1122 6.41903 17.1122ZM6.58523 16.1335C7.0161 16.1335 7.37926 16.0489 7.67472 15.8796C7.97325 15.7103 8.19792 15.4918 8.34872 15.2241C8.5026 14.9563 8.57955 14.6747 8.57955 14.3793V13.3821C8.53338 13.4375 8.43182 13.4883 8.27486 13.5344C8.12098 13.5775 7.94247 13.616 7.73935 13.6499C7.5393 13.6806 7.34387 13.7083 7.15305 13.733C6.96532 13.7545 6.81297 13.773 6.69602 13.7884C6.41288 13.8253 6.1482 13.8853 5.90199 13.9684C5.65885 14.0484 5.46188 14.17 5.31108 14.3331C5.16335 14.4931 5.08949 14.7116 5.08949 14.9886C5.08949 15.3672 5.22952 15.6534 5.50959 15.8473C5.79273 16.0381 6.15128 16.1335 6.58523 16.1335Z" fill="#222222"></path>
<path d="M14.9303 17.1761C14.3082 17.1761 13.7435 17.0589 13.2364 16.8246C12.7293 16.5859 12.3266 16.2429 12.0283 15.7955C11.73 15.3437 11.5809 14.7983 11.5809 14.1591C11.5809 13.5966 11.6917 13.1406 11.9133 12.7912C12.1349 12.4375 12.431 12.1605 12.8018 11.9602C13.1725 11.7599 13.5816 11.6108 14.029 11.5128C14.4807 11.4105 14.9346 11.3295 15.3905 11.2699C15.9871 11.1932 16.4708 11.1357 16.8415 11.0973C17.2165 11.0547 17.4893 10.9844 17.6597 10.8864C17.8344 10.7884 17.9218 10.6179 17.9218 10.375V10.3239C17.9218 9.69318 17.7492 9.20312 17.404 8.85369C17.0631 8.50426 16.5454 8.32955 15.8508 8.32955C15.1306 8.32955 14.566 8.48722 14.1569 8.80256C13.7478 9.1179 13.4601 9.45455 13.2939 9.8125L11.8621 9.30114C12.1178 8.70454 12.4587 8.24006 12.8849 7.90767C13.3153 7.57102 13.784 7.33665 14.2911 7.20455C14.8025 7.06818 15.3053 7 15.7996 7C16.115 7 16.4772 7.03835 16.8863 7.11506C17.2996 7.1875 17.6981 7.33878 18.0816 7.56889C18.4694 7.79901 18.7911 8.14631 19.0468 8.6108C19.3025 9.07528 19.4303 9.69744 19.4303 10.4773V16.946H17.9218V15.6165H17.8451C17.7428 15.8295 17.5724 16.0575 17.3337 16.3004C17.0951 16.5433 16.7776 16.75 16.3813 16.9205C15.985 17.0909 15.5013 17.1761 14.9303 17.1761ZM15.1604 15.821C15.757 15.821 16.2599 15.7038 16.6689 15.4695C17.0823 15.2351 17.3934 14.9325 17.6022 14.5618C17.8153 14.1911 17.9218 13.8011 17.9218 13.392V12.0114C17.8579 12.0881 17.7172 12.1584 17.4999 12.2223C17.2868 12.282 17.0397 12.3352 16.7584 12.3821C16.4814 12.4247 16.2108 12.4631 15.9466 12.4972C15.6867 12.527 15.4758 12.5526 15.3138 12.5739C14.9218 12.625 14.5553 12.7081 14.2144 12.8232C13.8778 12.9339 13.605 13.1023 13.3962 13.3281C13.1917 13.5497 13.0894 13.8523 13.0894 14.2358C13.0894 14.7599 13.2833 15.1562 13.6711 15.4247C14.0631 15.6889 14.5596 15.821 15.1604 15.821Z" fill="#222222"></path>
</svg>