<svg width="11" height="14" viewBox="0 0 11 14" fill="none" xmlns="http://www.w3.org/2000/svg">
<path fill-rule="evenodd" clip-rule="evenodd" d="M0.513141 0.627007C0.668544 0.540389 0.844242 0.496799 1.02211 0.500733C1.1996 0.504658 1.37284 0.555766 1.52404 0.648793L1.525 0.649387L10.5145 6.14677C10.6614 6.23455 10.7833 6.35882 10.8681 6.50756C10.9537 6.65756 10.9987 6.82726 10.9987 6.99994C10.9987 7.17262 10.9537 7.34232 10.8681 7.49231C10.7833 7.64106 10.6614 7.76533 10.5145 7.85311L1.525 13.3505L1.52388 13.3512C1.37272 13.4441 1.19954 13.4952 1.02211 13.4991C0.844243 13.5031 0.668545 13.4595 0.513141 13.3729C0.357738 13.2862 0.228257 13.1597 0.138055 13.0064C0.0478526 12.853 0.00019604 12.6784 0 12.5005V1.49939C0.00019604 1.32148 0.0478526 1.14684 0.138055 0.993485C0.228257 0.840135 0.357738 0.713626 0.513141 0.627007ZM10.2563 6.57494L9.99841 6.99656L10.0017 6.99461C10.0008 6.99516 10 6.99592 9.9995 6.99684C9.99896 6.99779 9.99868 6.99885 9.99868 6.99994C9.99868 7.00102 9.99896 7.00209 9.9995 7.00303C10 7.00398 10.0008 7.00476 10.0017 7.00532L10.2563 6.57494ZM9.99284 6.99994L1 1.50049L0.999999 12.4994L1.00164 12.4984L9.99284 6.99994Z" fill="black"/>
</svg>
