<svg width="24" height="24" viewBox="0 0 24 24" fill="none" xmlns="http://www.w3.org/2000/svg">
<path fill-rule="evenodd" clip-rule="evenodd" d="M19.3488 4H6.09317V6.64052H19.3488V4ZM20.6744 7.97138H4.76768C4.03597 7.97138 3.44212 8.56523 3.44278 9.29694V15.9195H6.09391V18.5693C6.09391 19.3023 6.68776 19.8961 7.4208 19.8961H18.026C18.7563 19.8961 19.3489 19.3043 19.3489 18.5732V15.9195H22V9.29164C22 8.55927 21.4061 7.97138 20.6744 7.97138ZM20.6744 10.6225H19.3489V9.29694H20.6744V10.6225ZM18.0233 18.5759H7.41881V11.9428H18.0233V18.5759ZM8.74442 13.2736H16.6978V14.5992H8.74442V13.2736ZM16.6978 15.9247H8.74442V17.2503H16.6978V15.9247Z" fill="#565656"></path>
</svg>