<svg width="17" height="12" viewBox="0 0 17 12" fill="none" xmlns="http://www.w3.org/2000/svg">
<path fill-rule="evenodd" clip-rule="evenodd" d="M6.1875 4.875C6.1875 4.56434 6.43934 4.3125 6.75 4.3125H12.375C12.6857 4.3125 12.9375 4.56434 12.9375 4.875C12.9375 5.18566 12.6857 5.4375 12.375 5.4375H6.75C6.43934 5.4375 6.1875 5.18566 6.1875 4.875Z" fill="#666666"/>
<path fill-rule="evenodd" clip-rule="evenodd" d="M6.1875 7.125C6.1875 6.81434 6.43934 6.5625 6.75 6.5625H12.375C12.6857 6.5625 12.9375 6.81434 12.9375 7.125C12.9375 7.43566 12.6857 7.6875 12.375 7.6875H6.75C6.43934 7.6875 6.1875 7.43566 6.1875 7.125Z" fill="#666666"/>
<path fill-rule="evenodd" clip-rule="evenodd" d="M3.14201 0.704505C3.35298 0.493527 3.63913 0.375 3.9375 0.375H15.1875C15.4859 0.375 15.772 0.493526 15.983 0.704505C16.194 0.915484 16.3125 1.20163 16.3125 1.5V9.9375C16.3125 10.3851 16.1347 10.8143 15.8182 11.1307C15.5018 11.4472 15.0726 11.625 14.625 11.625H2.25C1.93934 11.625 1.6875 11.3732 1.6875 11.0625C1.6875 10.7518 1.93934 10.5 2.25 10.5C2.39918 10.5 2.54226 10.4407 2.64775 10.3352C2.75324 10.2298 2.8125 10.0867 2.8125 9.9375V1.5C2.8125 1.20163 2.93103 0.915483 3.14201 0.704505ZM3.84099 10.5H14.625C14.7742 10.5 14.9173 10.4407 15.0227 10.3352C15.1282 10.2298 15.1875 10.0867 15.1875 9.9375V1.5L3.9375 1.5V9.9375C3.9375 10.131 3.90428 10.321 3.84099 10.5Z" fill="#666666"/>
<path fill-rule="evenodd" clip-rule="evenodd" d="M1.125 2.625C1.43566 2.625 1.6875 2.87684 1.6875 3.1875V9.9375C1.6875 10.0867 1.74676 10.2298 1.85225 10.3352C1.95774 10.4407 2.10082 10.5 2.25 10.5C2.56066 10.5 2.8125 10.7518 2.8125 11.0625C2.8125 11.3732 2.56066 11.625 2.25 11.625C1.80245 11.625 1.37322 11.4472 1.05676 11.1307C0.74029 10.8143 0.5625 10.3851 0.5625 9.9375V3.1875C0.5625 2.87684 0.81434 2.625 1.125 2.625Z" fill="#666666"/>
</svg>
