<svg width="14" height="12" viewBox="0 0 14 12" fill="none" xmlns="http://www.w3.org/2000/svg">
<path fill-rule="evenodd" clip-rule="evenodd" d="M0.5 1.5C0.5 0.947715 0.947715 0.5 1.5 0.5H12.5C13.0523 0.5 13.5 0.947715 13.5 1.5V10.5C13.5 11.0523 13.0523 11.5 12.5 11.5H1.5C0.947715 11.5 0.5 11.0523 0.5 10.5V1.5ZM12.5 1.5H1.5V10.5H12.5V1.5Z" fill="black"/>
<path fill-rule="evenodd" clip-rule="evenodd" d="M4.11378 4.78468C4.2361 4.73347 4.36739 4.70709 4.5 4.70709C4.63261 4.70709 4.7639 4.73347 4.88622 4.78468C5.00785 4.83561 5.11819 4.91009 5.21092 5.00382L8.00001 7.79291L8.00269 7.79019L9.28913 6.50377C9.38185 6.41006 9.49218 6.3356 9.61378 6.28468C9.7361 6.23347 9.86739 6.20709 10 6.20709C10.1326 6.20709 10.2639 6.23347 10.3862 6.28468C10.5078 6.3356 10.6182 6.41006 10.7109 6.50377L13.3536 9.14645C13.5488 9.34171 13.5488 9.6583 13.3536 9.85356C13.1583 10.0488 12.8417 10.0488 12.6464 9.85356L9.99999 7.2071L9.99731 7.20982L8.7125 8.49459L8.71092 8.49619C8.6182 8.58992 8.50785 8.6644 8.38622 8.71533C8.2639 8.76654 8.13261 8.79292 8 8.79292C7.86739 8.79292 7.7361 8.76654 7.61378 8.71533C7.49215 8.6644 7.3818 8.58992 7.28908 8.49619L4.49999 5.7071L4.49731 5.70982L1.35355 8.85356C1.15829 9.04882 0.841709 9.04882 0.646447 8.85356C0.451184 8.6583 0.451184 8.34171 0.646447 8.14645L3.78906 5.00384C3.88179 4.9101 3.99215 4.83561 4.11378 4.78468Z" fill="black"/>
<path d="M8.75 5C9.16421 5 9.5 4.66421 9.5 4.25C9.5 3.83579 9.16421 3.5 8.75 3.5C8.33579 3.5 8 3.83579 8 4.25C8 4.66421 8.33579 5 8.75 5Z" fill="black"/>
</svg>
