<svg width="24" height="24" viewBox="0 0 24 24" fill="none" xmlns="http://www.w3.org/2000/svg">
<path d="M3 12.0541C3.00105 16.5089 6.22045 20.3019 10.5931 21V14.6712H8.30981V12.0541H10.5958V10.062C10.4935 9.118 10.814 8.17719 11.4702 7.49472C12.1263 6.81225 13.0503 6.45885 13.9914 6.53037C14.6668 6.54136 15.3405 6.60188 16.0073 6.71149V8.93821H14.8697C14.4781 8.8866 14.0843 9.01675 13.7994 9.29198C13.5145 9.56722 13.3692 9.95775 13.4046 10.3535V12.0541H15.8984L15.4997 14.6721H13.4046V21C18.1334 20.248 21.4494 15.9025 20.9504 11.1116C20.4512 6.32062 16.3116 2.76144 11.5307 3.0125C6.74959 3.26356 3.00076 7.23697 3 12.0541Z" fill="#565656"></path>
</svg>