<svg width="20" height="21" viewBox="0 0 20 21" fill="none" xmlns="http://www.w3.org/2000/svg">
<path fill-rule="evenodd" clip-rule="evenodd" d="M8.90432 1.14712C9.20373 0.873754 9.59453 0.722168 10 0.722168C10.4055 0.722168 10.7963 0.873754 11.0957 1.14712L11.0969 1.14821L19.2199 8.52998L19.2037 8.54058H19.2313C19.3919 8.69222 19.5205 8.87446 19.6095 9.07656C19.6986 9.27866 19.7463 9.49653 19.7499 9.71736L19.75 9.7305V19.125C19.75 19.556 19.5788 19.9693 19.274 20.2741C18.9693 20.5788 18.556 20.75 18.125 20.75H1.875C1.44402 20.75 1.0307 20.5788 0.725952 20.2741C0.421205 19.9693 0.25 19.556 0.25 19.125V9.7305L0.250106 9.71736C0.253679 9.49654 0.301401 9.27866 0.390462 9.07656C0.479522 8.87446 0.608121 8.69222 0.768687 8.54058L0.780128 8.52998L8.90312 1.14821L8.90432 1.14712ZM18.125 9.74155V19.125H1.875V9.74155C1.87529 9.73821 1.87612 9.73493 1.87748 9.73185C1.87878 9.72889 1.88054 9.72617 1.8827 9.72377L9.998 2.34899L10 2.34717L10.002 2.34899L18.1173 9.72377C18.1195 9.72617 18.1212 9.72889 18.1225 9.73185C18.1239 9.73493 18.1247 9.73821 18.125 9.74155Z" fill="#EE1F23"/>
</svg>
