<?xml version="1.0" encoding="utf-8"?>
<!-- Generator: Adobe Illustrator 16.0.0, SVG Export Plug-In . SVG Version: 6.00 Build 0)  -->
<!DOCTYPE svg PUBLIC "-//W3C//DTD SVG 1.1//EN" "http://www.w3.org/Graphics/SVG/1.1/DTD/svg11.dtd">
<svg version="1.1" id="Layer_1" xmlns="http://www.w3.org/2000/svg" xmlns:xlink="http://www.w3.org/1999/xlink" x="0px" y="0px"
	 width="24px" height="24px" viewBox="0 0 24 24" enable-background="new 0 0 24 24" xml:space="preserve">
<g>
	<path fill="#565656" d="M22.949,7.91l-6.099,6.159v-3.068c-3.854-0.799-6.902,0.082-9.215,3.016
		c0.403-6.033,4.523-8.944,9.215-9.137V1.75L22.949,7.91L22.949,7.91z"/>
	<path fill="#565656" d="M2.707,5.895h6.218c-0.801,0.691-1.52,1.495-2.14,2.412H3.912v10.987h14.07v-2.562l2.41-2.371v6.138
		c0,0.666-0.54,1.206-1.206,1.206H2.707c-0.666,0-1.206-0.54-1.206-1.206V7.101C1.5,6.435,2.041,5.895,2.707,5.895L2.707,5.895z"/>
</g>
</svg>
