<?xml version="1.0" encoding="utf-8"?>
<!-- Generator: Adobe Illustrator 16.0.0, SVG Export Plug-In . SVG Version: 6.00 Build 0)  -->
<!DOCTYPE svg PUBLIC "-//W3C//DTD SVG 1.1//EN" "http://www.w3.org/Graphics/SVG/1.1/DTD/svg11.dtd">
<svg version="1.1" id="Layer_1" xmlns="http://www.w3.org/2000/svg" xmlns:xlink="http://www.w3.org/1999/xlink" x="0px" y="0px"
	 width="18px" height="18px" viewBox="0 0 18 18" enable-background="new 0 0 18 18" xml:space="preserve">
<path fill="black" d="M16.009,14.452l-3.236-3.237c0.432-0.711,0.647-1.476,0.647-2.292c0-1.038-0.318-1.959-0.954-2.764
	s-1.443-1.335-2.423-1.592V0c1.47,0.187,2.802,0.694,3.998,1.522c1.195,0.828,2.14,1.893,2.834,3.193
	c0.694,1.3,1.041,2.703,1.041,4.208C17.916,10.976,17.28,12.818,16.009,14.452z M4.584,7.786H0c0.257-2.029,1.111-3.77,2.563-5.223
	C4.016,1.111,5.756,0.257,7.786,0v4.566C7.004,4.776,6.325,5.17,5.748,5.748C5.17,6.325,4.782,7.004,4.584,7.786z M4.566,10.043
	c0.257,0.979,0.788,1.787,1.592,2.423s1.726,0.954,2.764,0.954c0.816,0,1.581-0.216,2.292-0.647l3.237,3.236
	c-1.634,1.271-3.477,1.907-5.529,1.907c-1.504,0-2.907-0.347-4.208-1.041c-1.301-0.694-2.365-1.639-3.193-2.834
	C0.694,12.845,0.187,11.513,0,10.043H4.566z"/>
</svg>
