<svg width="8" height="8" viewBox="0 0 8 8" fill="none" xmlns="http://www.w3.org/2000/svg">
<path fill-rule="evenodd" clip-rule="evenodd" d="M0.25 4C0.25 3.82741 0.389911 3.6875 0.5625 3.6875H7.4375C7.61009 3.6875 7.75 3.82741 7.75 4C7.75 4.17259 7.61009 4.3125 7.4375 4.3125H0.5625C0.389911 4.3125 0.25 4.17259 0.25 4Z" fill="#666666"/>
<path fill-rule="evenodd" clip-rule="evenodd" d="M4.40403 0.966529C4.52607 0.84449 4.72393 0.84449 4.84597 0.966529L7.65847 3.77903C7.78051 3.90107 7.78051 4.09893 7.65847 4.22097L4.84597 7.03347C4.72393 7.15551 4.52607 7.15551 4.40403 7.03347C4.28199 6.91143 4.28199 6.71357 4.40403 6.59153L6.99556 4L4.40403 1.40847C4.28199 1.28643 4.28199 1.08857 4.40403 0.966529Z" fill="#666666"/>
</svg>
