<?xml version="1.0" encoding="utf-8"?>
<!-- Generator: Adobe Illustrator 16.0.0, SVG Export Plug-In . SVG Version: 6.00 Build 0)  -->
<!DOCTYPE svg PUBLIC "-//W3C//DTD SVG 1.1//EN" "http://www.w3.org/Graphics/SVG/1.1/DTD/svg11.dtd">
<svg version="1.1" id="Layer_1" xmlns="http://www.w3.org/2000/svg" xmlns:xlink="http://www.w3.org/1999/xlink" x="0px" y="0px"
	 width="18px" height="18px" viewBox="0 0 18 18" enable-background="new 0 0 18 18" xml:space="preserve">
<path fill="#FFFFFF" d="M16.162,1.958H1.796C0.806,1.958,0,2.763,0,3.754v10.774c0,0.991,0.806,1.796,1.796,1.796h14.366
	c0.989,0,1.796-0.805,1.796-1.796V3.754C17.958,2.763,17.151,1.958,16.162,1.958z M4.041,4.652c0.357,0,0.7,0.142,0.952,0.395
	s0.395,0.595,0.395,0.952s-0.142,0.7-0.395,0.952S4.397,7.345,4.041,7.345s-0.7-0.142-0.952-0.395S2.694,6.355,2.694,5.999
	s0.142-0.7,0.395-0.952S3.684,4.652,4.041,4.652z M8.979,13.631H2.694l3.591-4.49l1.347,1.796l2.694-3.592l4.938,6.286H8.979z"/>
</svg>
