<?xml version="1.0" encoding="utf-8"?>
<!-- Generator: Adobe Illustrator 27.6.1, SVG Export Plug-In . SVG Version: 6.00 Build 0)  -->
<svg version="1.1" id="Layer_1" xmlns="http://www.w3.org/2000/svg" xmlns:xlink="http://www.w3.org/1999/xlink" x="0px" y="0px"
	 viewBox="0 0 563.26 139.97" style="enable-background:new 0 0 563.26 139.97;" xml:space="preserve">
<style type="text/css">
	.st0{fill-rule:evenodd;clip-rule:evenodd;fill:#EC2326;}
</style>
<g>
	<path class="st0" d="M176.44,24.37C149.09,1.36,64.7,0.81,24.04,7.9L0,37.56c27.2-5.91,51.21-8.92,64.62-6.54l-3.94-2.6
		c11.82-0.56,18.39-1.41,31.59-0.6l-6.76,15.09c-18.39,0.63-47.86,4.65-67.78,10.11l7.21,7.92c12.3-4.31,40.28-7.77,56.11-7.47
		L70.61,77.95c-8.29,2.23-23.52,7.14-30.58,9.92c4.2,5.17,11.56,14.57,17.43,18.73l11.74-11.59c13.49,0.93,27.54,1.75,39.5,0.45
		c22-2.38,34.34-6.28,50.47-13.42C191.27,67.4,198.07,40.2,176.44,24.37L176.44,24.37z M79.71,78.03l14.01-24.04
		c12.23-0.15,32.03,3.79,45.37,7.62l8.1-13.49c3.16-2.12-27.13-6.09-47.05-5.65l7.95-12.78C223.08,36.03,184.69,83.49,79.71,78.03z"
		/>
	<path class="st0" d="M210,82.04l13.75-18.43c-2.27-0.3-3.53-4.16-19.55-5.5c-10,3.9-24.38,11.93-32.18,18.25
		c-5.35,4.31-8.21,6.8-8.47,9.96c0.85,6.02,8.99,8.36,12.52,8.03c5.17-0.37,9.36-3.79,12.37-6.21c-0.37,0.85-1.86,2.53-2.19,5.09
		c4.65,0.85,10.85,3.72,12.82,4.16l13.97-12.67c0.63-0.19-6.32,8.32-5.57,10l17.91,2.9l0.26-1.49l5.43-6.35
		c3.64-3.79,7.39-7.88,9.59-9.89c-3.2,1.9-3.68,1.9-7.88,4.35c3.94-5.43,7.92-10.11,11.89-15.76c-2.56-1.75-10.66-3.79-14.12-4.05
		c-3.53,3.49-5.69,5.61-6.99,6.88c-0.48,0.48-4.09,4.27-6.5,5.87C215.8,78.25,212.3,80.52,210,82.04L210,82.04z M199.19,71.9
		l-6.13,5.83c-2.97,2.53-6.02,4.98-9.22,3.27C183.61,75.17,205.13,66.66,199.19,71.9z"/>
	<path class="st0" d="M233.78,61.79l12.23,4.16l10.14-11.78c-2.23-0.97-3.6-1.86-6.17-2.75C246.27,52.76,238.69,57.4,233.78,61.79z"
		/>
	<path class="st0" d="M181.72,96.65c-4.61-1-9.1-0.82-9.81,1.15c-0.71,1.93,2.6,5.16,7.28,6.17c4.65,1,9.22,0.45,9.74-1.71
		C189.71,100.06,186.4,97.65,181.72,96.65z"/>
	<path class="st0" d="M404.73,67.36c-3.53,0-7.02,1.41-12.67,5.09c1.26-2.12,5.05-5.69,3.75-6.32l-9.33-4.57
		c-4.16,5.98-8.7,12.82-13.79,14.83l6.13-11.11l-8.81-2.6c-1.56-0.07-0.78-3.53-8.06-3.05c-2.75-0.19-5.2,0.78-7.43,2.12
		c-3.2,1.97-5.28,3.83-7.51,5.35c-1.08,0.56-3.01,1.86-4.35,2.56c-1.71,0.85-3.53,1.67-5.09,1.86c0.33-3.68,0.37-7.14-0.93-10.15
		c-1.56-1.15-7.84-2.6-13.23-3.27c-3.01,1.71-5.83,3.83-8.66,6.43c-1.41,1.26-3.38,3.46-4.87,4.83c-4.01,4.31-6.32,7.54-11.41,10.26
		l23.86-33.67l31.14,0.71l-2.68-6.69l-24.38,0.11l9.1-12.41l-13.79-1.9c-0.37-0.08-2.75,8.36-8.4,13.6
		c-10.4-0.89-58.71-1.67-56.15,1.78l5.02,7.47c2.15-0.22,8.32-2.19,10.37-2.34c14.42-1.15,21.93-1.11,35.86-0.63L297.11,59
		l-6.8-2.75l-4.27-1.26c-3.68-0.37-8.77-0.48-13.04,1.49c-9.48,4.42-18.54,12.71-22.11,17.32c-0.85,1.63-1.97,4.09-2.38,5.43
		c-2.16,6.76-0.82,10.81,2.42,13.23c1.6,1.15,3.83,2.16,6.47,2.64c8.92,2.19,14.72-3.01,15.27-3.38l4.5-3.86l-2.38,4.53
		c2.68,2.27,9.7,4.42,13.53,5.57c4.61-2.9,9.88-10.44,15.2-14.64c-0.67,1.75-1.19,6.02,0.33,9.51c3.87,1.34,9.66,2.34,13.56,2.82
		c4.39-1.19,11.19-5.43,13.53-8.29c4.46-4.91,5.31-8.32,6.24-12.11l5.35-2.94c-1.78,1.82-9.88,8.7-9.51,21.48
		c3.72,1.19,9.18,2.56,13.01,2.56c4.01-1.34,7.32-6.36,10.26-9.48l-2.82,7.43c3.68,1.52,7.54,1.34,10.85,2.27
		c3.31-3.75,8.36-11.48,11.3-15.35l-4.46,11.71c4.61,0.74,8.92,1.9,10.81,0.82c13.45-17.73,14.57-12.78,6.99,0.08l10.96,3.05
		c0.07-0.07,2.34,0.85,4.39,0.67c3.27-2.45,5.76-4.79,7.58-5.98c0.89-0.59,6.73-5.05,12.34-9.51c-0.04-0.11,0.93-6.47,1.15-6.65
		c-1.49,1-5.87,8.99-8.03,10.37c-2.49,1.6-5.2,3.01-5.95,3.31c-1.56,0.63-2.15,0.82-3.27,0.93c1.12-1.75,2.12-3.94,2.71-4.98
		c2.42-4.09,4.61-7.14,7.21-11.41c-1.78-2.16-6.06-3.9-8.7-5.02C407.85,68.1,407.07,67.33,404.73,67.36L404.73,67.36z M290.83,65.87
		l-4.01,4.68l-9.25,8.62c-6.13,2.19-9.22,1.63-8.36-2.04c4.09-7.69,9.55-11.71,14.42-14.6C286.66,61.97,291.05,62.53,290.83,65.87
		L290.83,65.87z M318.1,86.31c-0.26-4.31-0.63-5.09,2.42-10.85c2.53,1.67,3.49,1.3,5.57,1.26C324.68,81.48,321.45,84.64,318.1,86.31
		L318.1,86.31z M327.43,72.45c-2.04,0.3-3.01-0.85-3.72-2.12c0.71-1.08,1.19-1.56,2.56-2.01C327.36,68.92,327.58,71.52,327.43,72.45
		L327.43,72.45z M351.29,81.15c-2.19,1.63-2.45-0.19-1.71-3.08c2.19-5.46,9.4-7.92,11.04-5.43
		C357.23,77.02,354.74,78.1,351.29,81.15z"/>
	<path class="st0" d="M367.75,48.11l-3.2,6.06l59.68,5.2l0.11-3.83C415.99,54.43,368.05,47.63,367.75,48.11z"/>
	<path class="st0" d="M562.48,63.68c-8.14-2.75-19.51-4.24-31.81-5.72l5.72-8.36c-3.01-2.71-6.54-4.16-8.44-6.43
		c-3.75,2.82-9.55,8.62-12.23,13.71l-6.88-0.22c-1.11,2.75,0.3,7.99,1.08,10.78c-13.01,21.81-18.88,20.33-20.51,19.92
		c-1.9,0.07-3.53-2.01-5.39-5.95c0.11-1.04,7.92-6.36,10.74-9.07c2.49-2.56,4.35-5.43,4.68-7.21c-2.19-1.71-7.17-5.46-13.27-6.47
		c-7.77,2.12-15.76,6.8-18.39,13.53c-0.85,2.27-2.86,7.66-0.59,13.9c-3.46,3.98-4.87,2.82-7.32,0.63l-7.54-18.58
		c4.72-5.87,18.51-12.15,24.86-16.68l-4.79-10.78c-8.92,5.46-17.24,16.5-22.19,21.7l-0.78-2.04l16.54-26.72
		c3.23-3.53-10.96-8.36-14.23-4.01c-7.95,6.84-30.44,49.42-34.75,65.52c2.82,2.49,11.97,4.35,16.42,5.76
		c1.75-7.36,5.65-19.55,8.55-24.9c4.79,4.87,9.14,22.04,20.89,19.29l6.47-4.57c0.74,1.78,2.08,3.01,4.01,3.9
		c2.6,1.26,6.32,1.41,11.19,1.11c6.76-0.63,14.68-8.44,20.33-12.82c-2.12,3.98-1.26,7.06-2.19,10.41
		c3.68,2.82,12.41,4.46,16.09,4.94c0.26-12,1.75-22.04,6.17-29.95c12.82,0.63,28.09,0.89,38.35,3.31L562.48,63.68L562.48,63.68z
		 M479.94,71.93c1.49-3.08,3.53-4.57,6.32-4.01c1.82,2.04,1.56,2.6-1.19,5.83C481.87,77.92,480.65,76.09,479.94,71.93z"/>
	<path class="st0" d="M498.3,51.72c3.6,1.15,5.02,2.34,7.21,4.68l6.24-7.77l-9.29-7.88c-2.12-2.12-21.48,10.78-21.41,10.78
		l6.61,4.09L498.3,51.72z"/>
	<path class="st0" d="M535.76,27.97l-8.99-7.99c-5.39,3.46-8.99,8.55-13.45,17.32c2.49,0.63,6.73,4.65,6.99,4.31
		C525.09,36.07,530.33,31.8,535.76,27.97z"/>
</g>
<g>
	<path d="M27.71,127.56l2.24,0.71c-0.34,1.25-0.92,2.18-1.71,2.79c-0.8,0.61-1.81,0.91-3.04,0.91c-1.52,0-2.77-0.52-3.75-1.56
		c-0.98-1.04-1.47-2.46-1.47-4.26c0-1.91,0.49-3.39,1.48-4.44s2.28-1.58,3.88-1.58c1.4,0,2.54,0.41,3.41,1.24
		c0.52,0.49,0.91,1.19,1.17,2.11l-2.29,0.55c-0.14-0.59-0.42-1.06-0.85-1.41s-0.95-0.52-1.57-0.52c-0.85,0-1.54,0.3-2.07,0.91
		c-0.53,0.61-0.79,1.6-0.79,2.96c0,1.45,0.26,2.48,0.78,3.09c0.52,0.61,1.2,0.92,2.03,0.92c0.61,0,1.14-0.2,1.59-0.59
		C27.2,129.01,27.51,128.4,27.71,127.56z"/>
	<path d="M42.3,120.32h2.2v1.57c0,0.65-0.06,1.15-0.17,1.52c-0.11,0.36-0.32,0.69-0.61,0.97s-0.67,0.51-1.12,0.68
		c0.04,0.32,0.05,0.66,0.05,1.01c0,1.83-0.5,3.28-1.5,4.33s-2.35,1.58-4.04,1.58c-1.71,0-3.06-0.52-4.07-1.57
		c-1-1.04-1.5-2.47-1.5-4.29c0-1.92,0.53-3.42,1.59-4.51c0.96-0.99,2.27-1.48,3.95-1.48c1.69,0,3.04,0.52,4.05,1.57
		c0.61,0.64,1.04,1.42,1.28,2.35c0.61-0.28,0.92-0.79,0.95-1.53H42.3V120.32z M33.93,126.04c0,1.26,0.3,2.25,0.9,2.95
		c0.57,0.67,1.33,1,2.28,1s1.71-0.33,2.27-1c0.59-0.7,0.88-1.69,0.88-2.98c0-1.28-0.29-2.26-0.86-2.94
		c-0.55-0.65-1.32-0.97-2.3-0.97c-0.98,0-1.75,0.33-2.3,0.98C34.22,123.77,33.93,124.75,33.93,126.04z"/>
	<path d="M59.49,130.32c0.57,0.41,1.18,0.73,1.85,0.97l-0.85,1.63c-0.35-0.1-0.69-0.25-1.02-0.43c-0.07-0.04-0.59-0.38-1.54-1.02
		c-0.75,0.33-1.58,0.49-2.49,0.49c-1.76,0-3.14-0.52-4.14-1.55c-1-1.04-1.5-2.49-1.5-4.37c0-1.87,0.5-3.32,1.5-4.36
		s2.36-1.56,4.07-1.56c1.7,0,3.04,0.52,4.04,1.56c0.99,1.04,1.49,2.49,1.49,4.36c0,0.99-0.14,1.86-0.41,2.61
		C60.28,129.23,59.94,129.78,59.49,130.32z M57.63,129.01c0.3-0.35,0.52-0.77,0.67-1.27s0.22-1.06,0.22-1.7
		c0-1.32-0.29-2.31-0.88-2.96c-0.58-0.65-1.35-0.98-2.29-0.98c-0.94,0-1.71,0.33-2.29,0.98s-0.88,1.64-0.88,2.96
		c0,1.34,0.29,2.34,0.88,3s1.33,1,2.22,1c0.33,0,0.65-0.05,0.95-0.16c-0.47-0.31-0.95-0.55-1.43-0.72l0.65-1.32
		C56.21,128.1,56.93,128.49,57.63,129.01z"/>
	<path d="M62.78,120.32h2.31v6.2c0,0.98,0.03,1.62,0.09,1.91c0.1,0.47,0.33,0.84,0.71,1.13c0.37,0.28,0.88,0.43,1.53,0.43
		c0.66,0,1.15-0.13,1.48-0.4c0.33-0.27,0.53-0.6,0.6-0.99c0.07-0.39,0.1-1.04,0.1-1.95v-6.34h2.31v6.02c0,1.38-0.06,2.35-0.19,2.91
		s-0.36,1.05-0.69,1.44s-0.79,0.7-1.35,0.93s-1.3,0.35-2.2,0.35c-1.09,0-1.92-0.13-2.49-0.38c-0.57-0.25-1.01-0.58-1.34-0.98
		s-0.54-0.83-0.65-1.27c-0.15-0.66-0.23-1.62-0.23-2.91V120.32z"/>
	<path d="M84.75,131.77h-2.52l-1-2.6h-4.58l-0.95,2.6h-2.45l4.46-11.45h2.45L84.75,131.77z M80.5,127.24l-1.58-4.25l-1.55,4.25H80.5
		z"/>
	<path d="M86.09,131.77v-11.45h2.25l4.69,7.65v-7.65h2.15v11.45h-2.32l-4.62-7.47v7.47H86.09z"/>
	<path d="M104.8,131.77v-9.52h-3.4v-1.94h9.1v1.94h-3.39v9.52H104.8z"/>
	<path d="M112.08,131.77v-11.45h4.87c1.22,0,2.11,0.1,2.67,0.31s1,0.57,1.33,1.1c0.33,0.53,0.5,1.13,0.5,1.8
		c0,0.86-0.25,1.57-0.76,2.13c-0.51,0.56-1.26,0.91-2.27,1.06c0.5,0.29,0.91,0.61,1.24,0.96c0.33,0.35,0.76,0.97,1.32,1.86l1.4,2.23
		h-2.77l-1.67-2.49c-0.59-0.89-1-1.45-1.22-1.68s-0.45-0.39-0.7-0.48c-0.25-0.09-0.63-0.13-1.16-0.13h-0.47v4.78H112.08z
		 M114.4,125.16h1.71c1.11,0,1.8-0.05,2.08-0.14c0.28-0.09,0.49-0.25,0.65-0.48s0.23-0.52,0.23-0.86c0-0.39-0.1-0.7-0.31-0.93
		c-0.21-0.24-0.5-0.39-0.87-0.45c-0.19-0.03-0.75-0.04-1.69-0.04h-1.8V125.16z"/>
	<path d="M123.69,120.32h2.31v6.2c0,0.98,0.03,1.62,0.09,1.91c0.1,0.47,0.33,0.84,0.71,1.13c0.37,0.28,0.88,0.43,1.53,0.43
		c0.66,0,1.15-0.13,1.48-0.4c0.33-0.27,0.53-0.6,0.6-0.99c0.07-0.39,0.1-1.04,0.1-1.95v-6.34h2.31v6.02c0,1.38-0.06,2.35-0.19,2.91
		s-0.36,1.05-0.69,1.44s-0.79,0.7-1.35,0.93s-1.3,0.35-2.2,0.35c-1.09,0-1.92-0.13-2.49-0.38c-0.57-0.25-1.01-0.58-1.34-0.98
		s-0.54-0.83-0.65-1.27c-0.15-0.66-0.23-1.62-0.23-2.91V120.32z"/>
	<path d="M135.37,131.77v-11.45h2.25l4.69,7.65v-7.65h2.15v11.45h-2.32l-4.62-7.47v7.47H135.37z"/>
	<path d="M152.31,127.56v-1.93h4.98v4.56c-0.48,0.47-1.19,0.88-2.11,1.24c-0.92,0.36-1.85,0.54-2.79,0.54
		c-1.2,0-2.24-0.25-3.13-0.75s-1.56-1.22-2.01-2.16c-0.45-0.93-0.67-1.95-0.67-3.05c0-1.19,0.25-2.25,0.75-3.18s1.23-1.64,2.2-2.13
		c0.73-0.38,1.65-0.57,2.74-0.57c1.42,0,2.53,0.3,3.33,0.89c0.8,0.6,1.31,1.42,1.54,2.47l-2.3,0.43c-0.16-0.56-0.46-1.01-0.91-1.33
		s-1-0.49-1.67-0.49c-1.01,0-1.81,0.32-2.41,0.96c-0.6,0.64-0.89,1.59-0.89,2.85c0,1.36,0.3,2.38,0.91,3.06
		c0.6,0.68,1.4,1.02,2.38,1.02c0.48,0,0.97-0.09,1.46-0.29c0.49-0.19,0.9-0.42,1.25-0.69v-1.45H152.31z"/>
	<path d="M173.94,120.32h2.2v1.57c0,0.65-0.06,1.15-0.17,1.52c-0.11,0.36-0.32,0.69-0.61,0.98c-0.48,0.46-1.22,0.76-2.21,0.91v1.04
		c0,1.35-0.06,2.32-0.19,2.91c-0.12,0.56-0.35,1.04-0.69,1.44c-0.74,0.85-1.92,1.28-3.55,1.28c-1.81,0-3.09-0.46-3.83-1.37
		c-0.33-0.4-0.54-0.82-0.65-1.27c-0.15-0.65-0.23-1.62-0.23-2.91v-6.11h2.31v6.2c0,1,0.03,1.63,0.09,1.91
		c0.21,1.04,0.96,1.55,2.23,1.55c1.23,0,1.92-0.46,2.09-1.39c0.07-0.39,0.1-1.04,0.1-1.95v-6.34h2.31v4.09
		c0.75-0.14,1.28-0.41,1.58-0.82c0.18-0.24,0.27-0.6,0.28-1.07h-1.06V120.32z"/>
	<path d="M187.67,120.32h2.2v1.57c0,0.65-0.06,1.15-0.17,1.52c-0.11,0.36-0.32,0.69-0.61,0.97s-0.67,0.51-1.12,0.68
		c0.04,0.32,0.05,0.66,0.05,1.01c0,1.83-0.5,3.28-1.5,4.33s-2.35,1.58-4.04,1.58c-1.71,0-3.06-0.52-4.07-1.57
		c-1-1.04-1.5-2.47-1.5-4.29c0-1.92,0.53-3.42,1.59-4.51c0.96-0.99,2.27-1.48,3.95-1.48c1.69,0,3.04,0.52,4.05,1.57
		c0.61,0.64,1.04,1.42,1.28,2.35c0.61-0.28,0.92-0.79,0.95-1.53h-1.06V120.32z M179.3,126.04c0,1.26,0.3,2.25,0.9,2.95
		c0.57,0.67,1.33,1,2.28,1s1.71-0.33,2.27-1c0.59-0.7,0.88-1.69,0.88-2.98c0-1.28-0.29-2.26-0.86-2.94
		c-0.55-0.65-1.32-0.97-2.3-0.97c-0.98,0-1.75,0.33-2.3,0.98C179.59,123.77,179.3,124.75,179.3,126.04z"/>
	<path d="M191.13,131.77v-11.45h2.25l4.69,7.65v-7.65h2.15v11.45h-2.32l-4.62-7.47v7.47H191.13z"/>
	<path d="M208.07,127.56v-1.93h4.98v4.56c-0.48,0.47-1.19,0.88-2.11,1.24c-0.92,0.36-1.85,0.54-2.79,0.54
		c-1.2,0-2.24-0.25-3.13-0.75s-1.56-1.22-2.01-2.16c-0.45-0.93-0.67-1.95-0.67-3.05c0-1.19,0.25-2.25,0.75-3.18s1.23-1.64,2.2-2.13
		c0.73-0.38,1.65-0.57,2.74-0.57c1.42,0,2.53,0.3,3.33,0.89c0.8,0.6,1.31,1.42,1.54,2.47l-2.3,0.43c-0.16-0.56-0.46-1.01-0.91-1.33
		s-1-0.49-1.67-0.49c-1.01,0-1.81,0.32-2.41,0.96c-0.6,0.64-0.89,1.59-0.89,2.85c0,1.36,0.3,2.38,0.91,3.06
		c0.6,0.68,1.4,1.02,2.38,1.02c0.48,0,0.97-0.09,1.46-0.29c0.49-0.19,0.9-0.42,1.25-0.69v-1.45H208.07z"/>
	<path d="M227.13,127.56l2.24,0.71c-0.34,1.25-0.92,2.18-1.71,2.79s-1.81,0.91-3.04,0.91c-1.52,0-2.77-0.52-3.75-1.56
		s-1.47-2.46-1.47-4.26c0-1.91,0.49-3.39,1.48-4.44s2.28-1.58,3.88-1.58c1.4,0,2.54,0.41,3.41,1.24c0.52,0.49,0.91,1.19,1.17,2.11
		l-2.29,0.55c-0.14-0.59-0.42-1.06-0.85-1.41s-0.95-0.52-1.57-0.52c-0.85,0-1.54,0.3-2.07,0.91s-0.79,1.6-0.79,2.96
		c0,1.45,0.26,2.48,0.78,3.09s1.2,0.92,2.03,0.92c0.61,0,1.14-0.2,1.59-0.59S226.93,128.4,227.13,127.56z"/>
	<path d="M231.42,120.32h2.31v6.2c0,0.98,0.03,1.62,0.09,1.91c0.1,0.47,0.33,0.84,0.71,1.13s0.88,0.43,1.53,0.43
		c0.66,0,1.15-0.13,1.48-0.4s0.53-0.6,0.6-0.99s0.1-1.04,0.1-1.95v-6.34h2.31v6.02c0,1.38-0.06,2.35-0.19,2.91s-0.36,1.05-0.69,1.44
		s-0.79,0.7-1.35,0.93s-1.3,0.35-2.2,0.35c-1.09,0-1.92-0.13-2.49-0.38s-1.01-0.58-1.34-0.98s-0.54-0.83-0.65-1.27
		c-0.15-0.66-0.23-1.62-0.23-2.91V120.32z M236.11,118.95c0.28-0.07,0.42-0.19,0.42-0.36c0-0.12-0.07-0.22-0.22-0.3
		c-0.22-0.12-0.57-0.18-1.04-0.18c-0.16,0-0.41,0.01-0.73,0.03l-0.09-0.8c0.2-0.04,0.58-0.06,1.12-0.05c0.64,0,1.16,0.11,1.57,0.31
		c0.45,0.22,0.68,0.52,0.69,0.91c0.02,0.54-0.45,0.87-1.42,0.99v0.39h-0.88v-0.86C235.84,119.01,236.03,118.98,236.11,118.95z"/>
	<path d="M253.39,131.77h-2.52l-1-2.6h-4.58l-0.95,2.6h-2.45l4.46-11.45h2.45L253.39,131.77z M249.14,127.24l-1.58-4.25l-1.55,4.25
		H249.14z"/>
	<path d="M259.2,131.77v-11.45h3.46l2.08,7.81l2.05-7.81h3.47v11.45h-2.15v-9.02l-2.27,9.02h-2.23l-2.27-9.02v9.02H259.2z"/>
	<path d="M282.96,131.77h-2.52l-1-2.6h-4.58l-0.95,2.6h-2.45l4.46-11.45h2.45L282.96,131.77z M275.12,119.32
		c-0.15-0.15-0.27-0.28-0.34-0.41h0.76c0.11,0.13,0.28,0.23,0.5,0.3c0.33,0.1,0.67,0.16,1.01,0.16c0.35,0,0.69-0.05,1.02-0.16
		c0.19-0.06,0.36-0.16,0.51-0.3h0.76c-0.16,0.29-0.43,0.53-0.81,0.72c-0.4,0.2-0.89,0.3-1.48,0.3c-0.18,0-0.35-0.01-0.52-0.03
		C275.91,119.82,275.44,119.63,275.12,119.32z M278.71,127.24l-1.58-4.25l-1.55,4.25H278.71z M276.06,134.9v-2.2h2.2v2.2H276.06z"/>
	<path d="M286.85,131.77v-9.52h-3.4v-1.94h9.1v1.94h-3.39v9.52H286.85z"/>
	<path d="M301.23,131.77v-9.52h-3.4v-1.94h9.1v1.94h-3.39v9.52H301.23z"/>
	<path d="M308.51,131.77v-11.45h4.87c1.22,0,2.11,0.1,2.67,0.31s1,0.57,1.33,1.1s0.5,1.13,0.5,1.8c0,0.86-0.25,1.57-0.76,2.13
		s-1.26,0.91-2.27,1.06c0.5,0.29,0.91,0.61,1.24,0.96s0.76,0.97,1.32,1.86l1.4,2.23h-2.77l-1.67-2.49c-0.59-0.89-1-1.45-1.22-1.68
		s-0.45-0.39-0.7-0.48s-0.63-0.13-1.16-0.13h-0.47v4.78H308.51z M310.82,125.16h1.71c1.11,0,1.8-0.05,2.08-0.14s0.49-0.25,0.65-0.48
		s0.23-0.52,0.23-0.86c0-0.39-0.1-0.7-0.31-0.93s-0.5-0.39-0.87-0.45c-0.19-0.03-0.75-0.04-1.69-0.04h-1.8V125.16z"/>
	<path d="M330.46,131.77h-2.52l-1-2.6h-4.58l-0.95,2.6h-2.45l4.46-11.45h2.45L330.46,131.77z M324.62,119.35l-0.86,0.58h-1.54
		l1.7-1.02h1.39l1.7,1.02h-1.54L324.62,119.35z M326.21,127.24l-1.58-4.25l-1.55,4.25H326.21z M323.57,134.9v-2.2h2.2v2.2H323.57z"
		/>
	<path d="M331.8,131.77v-11.45h2.25l4.69,7.65v-7.65h2.15v11.45h-2.32l-4.62-7.47v7.47H331.8z"/>
	<path d="M350.51,131.77v-9.52h-3.4v-1.94h9.1v1.94h-3.39v9.52H350.51z"/>
	<path d="M357.32,126.12c0-1.17,0.17-2.15,0.52-2.94c0.26-0.58,0.62-1.11,1.07-1.57s0.94-0.81,1.48-1.03
		c0.71-0.3,1.54-0.45,2.47-0.45c1.69,0,3.04,0.52,4.05,1.57s1.52,2.5,1.52,4.37c0,1.85-0.5,3.3-1.51,4.34s-2.35,1.57-4.03,1.57
		c-1.7,0-3.06-0.52-4.06-1.56S357.32,127.94,357.32,126.12z M359.7,126.04c0,1.3,0.3,2.28,0.9,2.95s1.36,1,2.28,1s1.68-0.33,2.27-1
		s0.89-1.66,0.89-2.99c0-1.31-0.29-2.29-0.86-2.94s-1.34-0.97-2.29-0.97s-1.72,0.33-2.3,0.98S359.7,124.72,359.7,126.04z
		 M362.84,119.35l-0.86,0.58h-1.54l1.7-1.02h1.39l1.7,1.02h-1.54L362.84,119.35z M362.94,118.26c0.25-0.06,0.39-0.13,0.39-0.22
		c0-0.07-0.06-0.12-0.2-0.17c-0.2-0.07-0.52-0.1-0.96-0.1c-0.04,0-0.14,0.01-0.29,0.03s-0.28,0.03-0.38,0.04l-0.09-0.51
		c0.19-0.03,0.54-0.04,1.05-0.03c1.36,0,2.06,0.19,2.09,0.55c0.02,0.35-0.42,0.59-1.32,0.71v0.1h-0.73v-0.34
		C362.7,118.29,362.85,118.28,362.94,118.26z"/>
	<path d="M384.05,130.32c0.57,0.41,1.18,0.73,1.85,0.97l-0.85,1.63c-0.35-0.1-0.69-0.25-1.02-0.43c-0.07-0.04-0.59-0.38-1.54-1.02
		c-0.75,0.33-1.58,0.49-2.49,0.49c-1.76,0-3.14-0.52-4.14-1.55s-1.5-2.49-1.5-4.37c0-1.87,0.5-3.32,1.5-4.36s2.36-1.56,4.07-1.56
		c1.7,0,3.04,0.52,4.04,1.56s1.49,2.49,1.49,4.36c0,0.99-0.14,1.86-0.41,2.61C384.85,129.23,384.51,129.78,384.05,130.32z
		 M382.19,129.01c0.3-0.35,0.52-0.77,0.67-1.27s0.22-1.06,0.22-1.7c0-1.32-0.29-2.31-0.88-2.96s-1.35-0.98-2.29-0.98
		s-1.71,0.33-2.29,0.98s-0.88,1.64-0.88,2.96c0,1.34,0.29,2.34,0.88,3s1.33,1,2.22,1c0.33,0,0.65-0.05,0.95-0.16
		c-0.47-0.31-0.95-0.55-1.43-0.72l0.65-1.32C380.78,128.1,381.5,128.49,382.19,129.01z"/>
	<path d="M387.34,120.32h2.31v6.2c0,0.98,0.03,1.62,0.09,1.91c0.1,0.47,0.33,0.84,0.71,1.13s0.88,0.43,1.53,0.43
		c0.66,0,1.15-0.13,1.48-0.4s0.53-0.6,0.6-0.99s0.1-1.04,0.1-1.95v-6.34h2.31v6.02c0,1.38-0.06,2.35-0.19,2.91s-0.36,1.05-0.69,1.44
		s-0.79,0.7-1.35,0.93s-1.3,0.35-2.2,0.35c-1.09,0-1.92-0.13-2.49-0.38s-1.01-0.58-1.34-0.98s-0.54-0.83-0.65-1.27
		c-0.15-0.66-0.23-1.62-0.23-2.91V120.32z"/>
	<path d="M398.53,126.12c0-1.17,0.17-2.15,0.52-2.94c0.26-0.58,0.62-1.11,1.07-1.57s0.94-0.81,1.48-1.03
		c0.71-0.3,1.54-0.45,2.47-0.45c1.69,0,3.04,0.52,4.05,1.57s1.52,2.5,1.52,4.37c0,1.85-0.5,3.3-1.51,4.34s-2.35,1.57-4.03,1.57
		c-1.7,0-3.06-0.52-4.06-1.56S398.53,127.94,398.53,126.12z M400.91,126.04c0,1.3,0.3,2.28,0.9,2.95s1.36,1,2.28,1s1.68-0.33,2.27-1
		s0.89-1.66,0.89-2.99c0-1.31-0.29-2.29-0.86-2.94s-1.34-0.97-2.29-0.97s-1.72,0.33-2.3,0.98S400.91,124.72,400.91,126.04z
		 M404.05,119.35l-0.86,0.58h-1.54l1.7-1.02h1.39l1.7,1.02h-1.54L404.05,119.35z M403.1,118.65l0.95-1.27h2.46l-2.02,1.27H403.1z"/>
	<path d="M418.85,127.56l2.24,0.71c-0.34,1.25-0.92,2.18-1.71,2.79s-1.81,0.91-3.04,0.91c-1.52,0-2.77-0.52-3.75-1.56
		s-1.47-2.46-1.47-4.26c0-1.91,0.49-3.39,1.48-4.44s2.28-1.58,3.88-1.58c1.4,0,2.54,0.41,3.41,1.24c0.52,0.49,0.91,1.19,1.17,2.11
		l-2.29,0.55c-0.14-0.59-0.42-1.06-0.85-1.41s-0.95-0.52-1.57-0.52c-0.85,0-1.54,0.3-2.07,0.91s-0.79,1.6-0.79,2.96
		c0,1.45,0.26,2.48,0.78,3.09s1.2,0.92,2.03,0.92c0.61,0,1.14-0.2,1.59-0.59S418.66,128.4,418.85,127.56z"/>
	<path d="M430.6,131.77l-4.09-11.45h2.51l2.9,8.48l2.8-8.48h2.45l-4.1,11.45H430.6z"/>
	<path d="M438.36,131.77v-11.45h2.31v11.45H438.36z"/>
	<path d="M442.96,131.77v-11.45h8.49v1.94h-6.18v2.54h5.75v1.93h-5.75v3.12h6.4v1.93H442.96z M447.44,119.35l-0.86,0.58h-1.54
		l1.7-1.02h1.39l1.7,1.02h-1.54L447.44,119.35z M446.39,134.9v-2.2h2.2v2.2H446.39z"/>
	<path d="M456.29,131.77v-9.52h-3.4v-1.94h9.1v1.94h-3.39v9.52H456.29z"/>
	<path d="M468.11,131.77v-11.45h2.25l4.69,7.65v-7.65h2.15v11.45h-2.32l-4.62-7.47v7.47H468.11z"/>
	<path d="M490.05,131.77h-2.52l-1-2.6h-4.58l-0.95,2.6h-2.45l4.46-11.45h2.45L490.05,131.77z M485.79,127.24l-1.58-4.25l-1.55,4.25
		H485.79z"/>
	<path d="M491.33,131.77v-11.45h3.46l2.08,7.81l2.05-7.81h3.47v11.45h-2.15v-9.02l-2.27,9.02h-2.23l-2.27-9.02v9.02H491.33z"/>
</g>
</svg>
